<svg xmlns="http://www.w3.org/2000/svg" viewBox="0 0 64 64" width="64" height="64" role="img" aria-label="Yamaha">
  <defs>
    <linearGradient id="fg-yamaha" x1="0" y1="0" x2="1" y2="1">
      <stop offset="0" stop-color="#c6bde5"/>
      <stop offset="1" stop-color="#5433cc"/>
    </linearGradient>
    <linearGradient id="fs-yamaha" x1="0" y1="0" x2="0" y2="1">
      <stop offset="0" stop-color="#fff" stop-opacity=".26"/>
      <stop offset=".55" stop-color="#fff" stop-opacity="0"/>
    </linearGradient>
    <radialGradient id="fk-yamaha" cx=".42" cy=".38" r=".72">
      <stop offset="0" stop-color="#ffe0ad"/>
      <stop offset="1" stop-color="#ff9b22"/>
    </radialGradient>
  </defs>
  <rect width="64" height="64" rx="15" fill="url(#fg-yamaha)"/>
  <rect width="64" height="64" rx="15" fill="url(#fs-yamaha)"/>
  <g transform="translate(32 32) scale(1) translate(-32 -32)">
    <circle cx="32" cy="32" r="22" fill="#21193b"/>
    <path d="M32.00 21.00L41.53 26.50L41.53 37.50L32.00 43.00L22.47 37.50L22.47 26.50Z" fill="url(#fk-yamaha)"/>
    <g stroke="#fff" stroke-opacity=".17" stroke-width="1.6" stroke-linecap="round">
      <path d="M41.53 26.50L49.48 31.09"/>
      <path d="M41.53 37.50L41.53 46.68"/>
      <path d="M32.00 43.00L24.05 47.59"/>
      <path d="M22.47 37.50L14.52 32.91"/>
      <path d="M22.47 26.50L22.47 17.32"/>
      <path d="M32.00 21.00L39.95 16.41"/>
    </g>
  </g>
</svg>
